<?xml version="1.0" encoding="UTF-8"?>
<svg id="Layer_15" data-name="Layer 15" xmlns="http://www.w3.org/2000/svg" xmlns:xlink="http://www.w3.org/1999/xlink" viewBox="0 0 124.44 144"><metadata><c2pa:manifest xmlns:c2pa="http://c2pa.org/manifest">AAA0N2p1bWIAAAAeanVtZGMycGEAEQAQgAAAqgA4m3EDYzJwYQAAADQRanVtYgAAAEdqdW1kYzJtYQARABCAAACqADibcQN1cm46dXVpZDoxYWJiY2EzZi01ODc3LTRkYmYtOTc5Ni1lMzE0ZmE2MWNhOTQAAAABp2p1bWIAAAApanVtZGMyYXMAEQAQgAAAqgA4m3EDYzJwYS5hc3NlcnRpb25zAAAAAMpqdW1iAAAAJmp1bWRjYm9yABEAEIAAAKoAOJtxA2MycGEuYWN0aW9ucwAAAACcY2JvcqFnYWN0aW9uc4GjZmFjdGlvbmtjMnBhLmVkaXRlZG1zb2Z0d2FyZUFnZW50bUFkb2JlIEZpcmVmbHlxZGlnaXRhbFNvdXJjZVR5cGV4Rmh0dHA6Ly9jdi5pcHRjLm9yZy9uZXdzY29kZXMvZGlnaXRhbHNvdXJjZXR5cGUvdHJhaW5lZEFsZ29yaXRobWljTWVkaWEAAACsanVtYgAAAChqdW1kY2JvcgARABCAAACqADibcQNjMnBhLmhhc2guZGF0YQAAAAB8Y2JvcqVqZXhjbHVzaW9uc4GiZXN0YXJ0GPVmbGVuZ3RoGUWgZG5hbWVuanVtYmYgbWFuaWZlc3RjYWxnZnNoYTI1NmRoYXNoWCAyhRvCybQH5q4EKHstlDjpovIr95MYi7aOSV4NjrliTmNwYWRJAAAAAAAAAAAAAAACC2p1bWIAAAAkanVtZGMyY2wAEQAQgAAAqgA4m3EDYzJwYS5jbGFpbQAAAAHfY2JvcqhoZGM6dGl0bGVvR2VuZXJhdGVkIEltYWdlaWRjOmZvcm1hdG1pbWFnZS9zdmcreG1samluc3RhbmNlSUR4LHhtcDppaWQ6YTdjMmMxMmQtZDdkOS00MjkzLTg3ZmQtOGRlNGY2NjNlY2Flb2NsYWltX2dlbmVyYXRvcng2QWRvYmVfSWxsdXN0cmF0b3IvMjguMCBhZG9iZV9jMnBhLzAuNy42IGMycGEtcnMvMC4yNS4ydGNsYWltX2dlbmVyYXRvcl9pbmZvgb9kbmFtZXFBZG9iZSBJbGx1c3RyYXRvcmd2ZXJzaW9uZDI4LjD/aXNpZ25hdHVyZXgZc2VsZiNqdW1iZj1jMnBhLnNpZ25hdHVyZWphc3NlcnRpb25zgqJjdXJseCdzZWxmI2p1bWJmPWMycGEuYXNzZXJ0aW9ucy9jMnBhLmFjdGlvbnNkaGFzaFgg66xm4WqDn3xgnOk59f7WI0GCp10rxJISEEb0ImTQK8GiY3VybHgpc2VsZiNqdW1iZj1jMnBhLmFzc2VydGlvbnMvYzJwYS5oYXNoLmRhdGFkaGFzaFggruTGUrv3WFbycdbZ0iceY0+BbQOXJ+uSElldMFZhhpRjYWxnZnNoYTI1NgAAMBBqdW1iAAAAKGp1bWRjMmNzABEAEIAAAKoAOJtxA2MycGEuc2lnbmF0dXJlAAAAL+BjYm9y0oRZDMKiATgkGCGCWQYQMIIGDDCCA/SgAwIBAgIQf/J0H9HG3kO1lHqOZXCenjANBgkqhkiG9w0BAQsFADB1MQswCQYDVQQGEwJVUzEjMCEGA1UEChMaQWRvYmUgU3lzdGVtcyBJbmNvcnBvcmF0ZWQxHTAbBgNVBAsTFEFkb2JlIFRydXN0IFNlcnZpY2VzMSIwIAYDVQQDExlBZG9iZSBQcm9kdWN0IFNlcnZpY2VzIEczMB4XDTI0MDExMTAwMDAwMFoXDTI1MDExMDIzNTk1OVowfzERMA8GA1UEAwwIY2FpLXByb2QxEzARBgNVBAoMCkFkb2JlIEluYy4xETAPBgNVBAcMCFNhbiBKb3NlMRMwEQYDVQQIDApDYWxpZm9ybmlhMQswCQYDVQQGEwJVUzEgMB4GCSqGSIb3DQEJARYRY2FpLW9wc0BhZG9iZS5jb20wggEiMA0GCSqGSIb3DQEBAQUAA4IBDwAwggEKAoIBAQDv0wCnfYY9lkHDsykrTG7FYlnYHBcyualuD5u9ULjzv+FsTWOLg8Nhrz9RTxI9EeBbu3Wm7f4vqPsQYfxkEp0wIa6DVmEOZhbAeRfbhybWQ/D4Wvvck4mEZR+QZmTpIn7HX61gbtMFHlJUxkYBctIoAt9TBAFbz9d5Ig2WG0bsH39b6/8USXnIIk4FB6dtBRT1xeEwSDtwOd1YBpXXNBJmRWHXNJZZ85of2tBTesg/kMvTrOJJxYDZ97U416wcvbVomlees+NXUY3/ZB4xH+NsZils7m1bL2v2hSnHiLoqZeUKklbHUmT4ZpjrZCdtuIsWm5j2PPXKr7HKUuCbZSXBAgMBAAWjggGMMIIBiDAMBgNVHRMBAf8EAjAAMA4GA1UdDwEB/wQEAwIHgDAeBgNVHSUEFzAVBgkqhkiG9y8BAQwGCCsGAQUFBwMEMIGOBgNVHSAEgYYwgYMwgYAGCSqGSIb3LwECAzBzMHEGCCsGAQUFBwICMGUMY1lvdSBhcmUgbm90IHBlcm1pdHRlZCB0byB1c2UgdGhpcyBMaWNlbnNlIENlcnRpZmljYXRlIGV4Y2VwdCBhcyBwZXJtaXR0ZWQgYnkgdGhlIGxpY2Vuc2UgYWdyZWVtZW50LjBdBgNVHR8EVjBUMFKgUKBOhkxodHRwOi8vcGtpLWNybC5zeW1hdXRoLmNvbS9jYV83YTVjM2EwYzczMTE3NDA2YWRkMTkzMTJiYzFiYzIzZi9MYXRlc3RDUkwuY3JsMDcGCCsGAQUFBwEBBCswKTAnBggrBgEFBQcwAYYbaHR0cDovL3BraS1vY3NwLnN5bWF1dGguY29tMB8GA1UdIwQYMBaAFFcpejJNzP7kNU7AHyRzznNTq99qMA0GCSqGSIb3DQEBCwUAA4ICAQAhY9X822Lvow9+KlSdkAI/95WsS/n1Y5se5YJkePUHLxsablSaNOA9BiVfJOPxcT+JjbumGCseDSmIOxYPO7mzwHpMqRoyZS+C2T5SC6TJtt920ELoq+0aDLjRw7gOQRSg8OK0PFPWKBtCp0qiAChUqoMRWqcX4IVBDO1sZxmEUj1cpOwJDB/2HDsuEkKjqMA0EgAE3JC1LBYik95IQmE9WBYvIp6mBDEkyovqyBhnEar2kJJCfaBLylp/JAUsHJnAQEP8PHK1FlkvpvdleoX59lmwT1+wHGlxYWK/ykW+AFA60LOVJt8byjtuAE8lebuYADyPe3eEMR4THQbHwH/1rz2nNN5tZWsPdIR7S5mX0RtUL74XgSixEkV1jDO4/WIk7V3kjdXEZr0WtWr8VgEY5G+8NpPBqd2LMLBp7jejMIj3tA8RS1L6MnO3PWRqkdwGwsCHsvGcTzauWarWji990WxBTPscSk6Q8WTIqiHI9OfUUiriWQkpfeMEDo1r+zHJRmj26+zgID7QB41xNeV3K6BFQX6ayl1swuIh26KB0Mu74sndRzG+8tMTffvjBoO9QPW/OtdWyYmsLGT0Kcj9EaaIg1JmgNtRBwo9f89eYJSYwenQ+GddpqdnBIjk63Q+K3gCdlpTs++tJCZ7DX9yndmYlx94HgUZFPcNimun6VkGpTCCBqEwggSJoAMCAQICEAyotlR7iebSBol1zYubieIwDQYJKoZIhvcNAQELBQAwbDELMAkGA1UEBhMCVVMxIzAhBgNVBAoTGkFkb2JlIFN5c3RlbXMgSW5jb3Jwb3JhdGVkMR0wGwYDVQQLExRBZG9iZSBUcnVzdCBTZXJ2aWNlczEZMBcGA1UEAxMQQWRvYmUgUm9vdCBDQSBHMjAeFw0xNjExMjkwMDAwMDBaFw00MTExMjgyMzU5NTlaMHUxCzAJBgNVBAYTAlVTMSMwIQYDVQQKExpBZG9iZSBTeXN0ZW1zIEluY29ycG9yYXRlZDEdMBsGA1UECxMUQWRvYmUgVHJ1c3QgU2VydmljZXMxIjAgBgNVBAMTGUFkb2JlIFByb2R1Y3QgU2VydmljZXMgRzMwggIiMA0GCSqGSIb3DQEBAQUAA4ICDwAwggIKAoICAQC3Hy69vQmzXEhs/gyDrmwB6lF4JaSAPomnsbKIZNr2iXaB+fkd85X8eJiNmI7P5O4cVT4Nc1p3zrESqBV4ZUyW8gcZ78QdwoHG8QNd2VNcHnMgSR+XT9Iafsnq9Nfww3Jt9KL3l5ANQ5n1+MJqr48EWNLll942bOL/JH4ywDSMoqhZqtJEIUUUGlQVBZ8CAvJc7LE6ddA5C52PE2Ppa7RfQgHXf4gfXVZwpxYRZcziPiOHqEvLb0J3cShUbejFxV6cwX8QyAPa1ePHg1RtM0HX+D34xHo3DkyGnmT+Ddq00TEDGG26AL5PdINKFIQl+zaq6KJFQe1fdGE5wrWzU4mBPmzaz3EbLn+7FWlwAhorYqIMldbfHE3ydc+aTU1JW7+bG19qmvhO9IluGtTtQDeqFBj2fg6faxsfVfVPD7stN6TwoIDlkOCE4RE+Iin8m3z3eqi/VsTmsmRqBxWDRaqOHz02EJoEDxXJG3ei+UbIIp01XZQvdufm90WxOTuqqan2ZqTPX9K5VdjEh/ovr7xFc5q1dZo+Sa5y4sTVM854/tLU3klOgUKzzSXYPYS3GhBcYJHjwr9xNRHnNX99D6F0g7OijScWfvtjxh13aTv/H0ETvymah4yfDpVdh9cK5YSCPqnuOlsujFAyhYwJXOWDvZZU2EkWVLDhoPx9zp7N4QIDAQABo4IBNDCCATAwEgYDVR0TAQH/BAgwBgEB/wIBADA1BgNVHR8ELjAsMCqgKKAmhiRodHRwOi8vY3JsLmFkb2JlLmNvbS9hZG9iZXJvb3RnMi5jcmwwDgYDVR0PAQH/BAQDAgEGMBQGA1UdJQQNMAsGCSqGSIb3LwEBBzBXBgNVHSAEUDBOMEwGCSqGSIb3LwECAzA/MD0GCCsGAQUFBwIBFjFodHRwczovL3d3dy5hZG9iZS5jb20vbWlzYy9wa2kvcHJvZF9zdmNlX2Nwcy5odG1sMCQGA1UdEQQdMBukGTAXMRUwEwYDVQQDEwxTWU1DLTQwOTYtMzMwHQYDVR0OBBYEFFcpejJNzP7kNU7AHyRzznNTq99qMB8GA1UdIwQYMBaAFKYc4W1UJEyoj0hyv26pjNXk7DHUMA0GCSqGSIb3DQEBCwUAA4ICAQBxzuUHjKbcLdzI4DtlXgCSgZXrlSAkr59pOF3JfPG42qVNAGU7JcEYXJ6+WbfcGwY7WYMl+jO7IvJPb7shXFYW9bnJgxX7lLU14KExchmcLNY1ee6IhBJ2Y8PzZMRUKSd5CkURPg0PBLGjz/KR/DofHx+G4rPTCOGORYxeYrd01lci5hVxvKccvIk7MD69ZTewfZPSM+0WnsU3f0Zmd7hgbRpUyWceG0eHFpdUKK/ZFWhHjDVC28odCnN885tHncKXviItK0ZUUo/AIthFKlhEXsnq9VL9fFbgvO83ZvpUQo5y8mY3cuGnEVGXdhjNb53CfC1u4dbpYmWaN99subUzEsUaUb3loLPfVfzDOpg2y9v37kBdy/wuXr20teY7U62xj/fAgs1QSnhUtlMTfCqbefyEycKVmKIrJkJLsvgTSYKVvH4FFIwfd5WjqOC97jX98rcVAzhAI0iSkazsWOMvL6m0L4nLJapx+85GsVX8Y6AHmEP4bmCElwil6KAP+UewJFiw5rmwV2pESHAhYuZJa03B8tl0nd2QJzvJGmbeBqXqpF9ORinFM3HErK8puRokOjFH2+1asLeI2tB31W/ELdNe27Ogduq6Z6qBwCp59YX27qydDhD0WRfN64kCs25K88iGAGNW2CAfTDS+b+WYJBiIL9jXYZ4LF+BiUvfdu6Jmc2lnVHN0oWl0c3RUb2tlbnOBoWN2YWxZDjYwgg4yMAMCAQAwgg4pBgkqhkiG9w0BBwKggg4aMIIOFgIBAzEPMA0GCWCGSAFlAwQCAQUAMIGBBgsqhkiG9w0BCRABBKByBHAwbgIBAQYJYIZIAYb9bAcBMDEwDQYJYIZIAWUDBAIBBQAEIGfHX+pQpwcuDctfAmgBX9dakl2Vb7R2ONooyuYWqP+qAhAEs5/7rFM3IWhEXrlGnmtJGA8yMDI0MDcxNTE2MzQyNFoCCBiK38vSO1HjoIILvTCCBQcwggLvoAMCAQICEAUenpHXHpEKu+Q9XO3Q3dkwDQYJKoZIhvcNAQELBQAwYzELMAkGA1UEBhMCVVMxFzAVBgNVBAoTDkRpZ2lDZXJ0LCBJbmMuMTswOQYDVQQDEzJEaWdpQ2VydCBUcnVzdGVkIEc0IFJTQTQwOTYgU0hBMjU2IFRpbWVTdGFtcGluZyBDQTAeFw0yMzA5MDgwMDAwMDBaFw0zNDEyMDcyMzU5NTlaMFgxCzAJBgNVBAYTAlVTMRcwFQYDVQQKEw5EaWdpQ2VydCwgSW5jLjEwMC4GA1UEAxMnRGlnaUNlcnQgQWRvYmUgQUFUTCBUaW1lc3RhbXAgUmVzcG9uZGVyMFkwEwYHKoZIzj0CAQYIKoZIzj0DAQcDQgAETSyuUfkD/7Xn8wWXVqw2HxDxO5s6wRV+7SqUmsXSyaO3AvUh4dn8AHsnn27VOumGjUEM3zmV9NjfSs0Gx9P6bKOCAYswggGHMA4GA1UdDwEB/wQEAwIHgDAMBgNVHRMBAf8EAjAAMBYGA1UdJQEB/wQMMAoGCCsGAQUFBwMIMCAGA1UdIAQZMBcwCAYGZ4EMAQQCMAsGCWCGSAGG/WwHATAfBgNVHSMEGDAWgBS6FtltTYUvcyl2mi91jGogj57IbzAdBgNVHQ4EFgQUsDWqVsMhqYvO07i8ixYlV53vNOEwWgYDVR0fBFMwUTBPoE2gS4ZJaHR0cDovL2NybDMuZGlnaWNlcnQuY29tL0RpZ2lDZXJ0VHJ1c3RlZEc0UlNBNDA5NlNIQTI1NlRpbWVTdGFtcGluZ0NBLmNybDCBkAYIKwYBBQUHAQEEgYMwgYAwJAYIKwYBBQUHMAGGGGh0dHA6Ly9vY3NwLmRpZ2ljZXJ0LmNvbTBYBggrBgEFBQcwAoZMaHR0cDovL2NhY2VydHMuZGlnaWNlcnQuY29tL0RpZ2lDZXJ0VHJ1c3RlZEc0UlNBNDA5NlNIQTI1NlRpbWVTdGFtcGluZ0NBLmNydDANBgkqhkiG9w0BAQsFAAOCAgEAeCuMQseEEIRYlILJFfuWwvQL0smBtfWvJVjJI1HEeQxHYuoLs9BlEmAM1H6Qminw/m/YHOn+MyvPDhTiljqti/cjwekWUlri4HBRMhSAdamLxfF3UkQRf3g844OLsfJJ6RfrQDTnkGjMVvsYZVrFvQut5BNFeeSvqCA81Q9f0aH7ZJw7GVN1BAuBluR1i/GjcCnpzL2uJmKNHE5mqI7JZLExSGArF4rPCsVbpdt7RrA2E5RdnMjFziLGkrNZIi2k8nfRmIFCfj1TcANhOeyFs31mRMDWkd/82i/ZlS+912RnxRi/Cj28G8tMO+eYAGdEwEppdgCzdkK/D0KQM85ZN5QkwVEC2ZTHnaiFoDecPxsInpR+lDakV851KHClvoYq/SD4GBx0gbYsc8nRR+av5eamBmCr8ciB7SGNwIAOmMOCrbPgHQvjG0ADUzwytTHTaHFvvXTicUqoy6/nMlNCXeyDCpdTI/73MdA/3L9nkXH8BBas5cJbnp1Xs/hwUEmXzMeqKeWGQ5K1nWbbb70eWr54LSEnaWQXUu7NF0klv/nUteg8pGeikUOeDpemgPt4brDhikDH34/TQm5SgGxhKt2y4WLJbJBAYECeMjr2CBtItxb6EnK26KdrFrBWUi0mRLZ5XlnhezE+Dt/za5GR203SFMd4j3cI3c5Z5F5ucrswggauMIIElqADAgECAhAHNje3JFR82Ees/ShmKl5bMA0GCSqGSIb3DQEBCwUAMGIxCzAJBgNVBAYTAlVTMRUwEwYDVQQKEwxEaWdpQ2VydCBJbmMxGTAXBgNVBAsTEHd3dy5kaWdpY2VydC5jb20xITAfBgNVBAMTGERpZ2lDZXJ0IFRydXN0ZWQgUm9vdCBHNDAeFw0yMjAzMjMwMDAwMDBaFw0zNzAzMjIyMzU5NTlaMGMxCzAJBgNVBAYTAlVTMRcwFQYDVQQKEw5EaWdpQ2VydCwgSW5jLjE7MDkGA1UEAxMyRGlnaUNlcnQgVHJ1c3RlZCBHNCBSU0E0MDk2IFNIQTI1NiBUaW1lU3RhbXBpbmcgQ0EwggIiMA0GCSqGSIb3DQEBAQUAA4ICDwAwggIKAoICAQDGhjUGSbPBPXJJUVXHJQPE8pE3qZdRodbSg9GeTKJtoLDMg/la9hGhRBVCX6SI82j6ffOciQt/nR+eDzMfUBMLJnOWbfhXqAJ9/UO0hNoR8XOxs+4rgISKIhjf69o9xBd/qxkrPkLcZ47qUT3w1lbU5ygt69OxtXXnHwZljZQp09nsad/ZkIdGAHvbREGJ3HxqV3rwN3mfXazL6IRktFLydkf3YYMZ3V+0VAshaG43IbtArF+y3kp9zvU5EmfvDqVjbOSmxR3NNg1c1eYbqMFkdECnwHLFuk4fsbVYTXn+149zk6wsOeKlSNbwsDETqVcplicu9Yemj052FVUmcJgmf6AaRyBD40NjgHt1biclkJg6OBGz9vae5jtb7IHeIhTZgirHkr+g3uM+onP65x9abJTyUpURK1h0QCirc0PO30qhHGs4xSnzyqqWc0Jon7ZGs506o9UD4L/wojzKQtwYSH8UNM/STKvvmz3+DrhkKvp1KCRB7UK/BZxmSVJQ9FHzNklNiyDSLFc1eSuo80VgvCONWPfcYd6T/jnA+bIwpUzX6ZhKWD7TA4j+s4/TXkt2ElGTyYwMO1uKIqjBJgj5FBASA31fI7tk42PgpuE+9sJ0sj8eCXbsq11GdeJgo1gJASgADoRU7s7pXcheMBK9Rp6103a50g5rmQzSM7TNsQIDAQABo4IBXTCCAVkwEgYDVR0TAQH/BAgwBgEB/wIBADAdBgNVHQ4EFgQUuhbZbU2FL3MpdpovdYxqII+eyG8wHwYDVR0jBBgwFoAU7NfjgtJxXWRM3y5nP+e6mK4cD08wDgYDVR0PAQH/BAQDAgGGMBMGA1UdJQQMMAoGCCsGAQUFBwMIMHcGCCsGAQUFBwEBBGswaTAkBggrBgEFBQcwAYYYaHR0cDovL29jc3AuZGlnaWNlcnQuY29tMEEGCCsGAQUFBzAChjVodHRwOi8vY2FjZXJ0cy5kaWdpY2VydC5jb20vRGlnaUNlcnRUcnVzdGVkUm9vdEc0LmNydDBDBgNVHR8EPDA6MDigNqA0hjJodHRwOi8vY3JsMy5kaWdpY2VydC5jb20vRGlnaUNlcnRUcnVzdGVkUm9vdEc0LmNybDAgBgNVHSAEGTAXMAgGBmeBDAEEAjALBglghkgBhv1sBwEwDQYJKoZIhvcNAQELBQADggIBAH1ZjsCTtm+YqUQiAX5m1tghQuGwGC4QTRPPMFPOvxj7x1Bd4ksp+3CKDaopafxpwc8dB+k+YMjYC+VcW9dth/qEICU0MWfNthKWb8RQTGIdDAiCqBa9qVbPFXONASIlzpVpP0d3+3J0FNf/q0+KLHqrhc1DX+1gtqpPkWaeLJ7giqzl/Yy8ZCaHbJK9nXzQcAp876i8dU+6WvepELJd6f8oVInw1YpxdmXazPByoyP6wCeCRK6ZJxurJB4mwbfeKuv2nrF5mYGjVoarCkXJ38SNoOeY+/umnXKvxMfBwWpx2cYTgAnEtp/Nh4cku0+jSbl3ZpHxcpzpSwJSpzd+k1OsOx0ISQ+UzTl63f8lY5knLD0/a6fxZsNBzU+2QJshIUDQtxMkzdwdeDrknq3lNHGS1yZr5Dhzq6YBT70/O3itTK37xJV77QpfMzmHQXh6OOmc4d0j/R0o08f56PGYX/sr2H7yRp11LB4nLCbbbxV7HhmLNriT1ObyF5lZynDwN7+YAN8gFk8n+2BnFqFmut1VwDophrCYoCvtlUG3OtUVmDG0YgkPCr2B2RP+v6TR81fZvAT6gt4y3wSJ8ADNXcL50CN/AAvkdgIm2fBldkKmKYcJRyvmfxqkhQ/8mJb2VVQrH4D6wPIOK+XW+6kvRBVK5xMOHds3OBqhK/bt1nz8MYIBuTCCAbUCAQEwdzBjMQswCQYDVQQGEwJVUzEXMBUGA1UEChMORGlnaUNlcnQsIEluYy4xOzA5BgNVBAMTMkRpZ2lDZXJ0IFRydXN0ZWQgRzQgUlNBNDA5NiBTSEEyNTYgVGltZVN0YW1waW5nIENBAhAFHp6R1x6RCrvkPVzt0N3ZMA0GCWCGSAFlAwQCAQUAoIHRMBoGCSqGSIb3DQEJAzENBgsqhkiG9w0BCRABBDAcBgkqhkiG9w0BCQUxDxcNMjQwNzE1MTYzNDI0WjArBgsqhkiG9w0BCRACDDEcMBowGDAWBBTZGrkz/het6YIephP1pDpxTj5+fTAvBgkqhkiG9w0BCQQxIgQgh3UyNYwys8Ub98cfkbSSpADldoGZy7PSotrfrlrsXAgwNwYLKoZIhvcNAQkQAi8xKDAmMCQwIgQggtrxlJV7NoQCRY/VJwBp/mLHFFb6nguGq/gn6FMgJ9kwCgYIKoZIzj0EAwIESDBGAiEAlyHqm0mXqVs/F6rgcnWEg84ynbHagYewHqknfkxaQEsCIQDcNqYvmZBr+s3OHZij9XvNZoq54/3NEx+dZJ60n8W75mNwYWRZE7QAAAAAAAAAAAAAAAAAAAAAAAAAAAAAAAAAAAAAAAAAAAAAAAAAAAAAAAAAAAAAAAAAAAAAAAAAAAAAAAAAAAAAAAAAAAAAAAAAAAAAAAAAAAAAAAAAAAAAAAAAAAAAAAAAAAAAAAAAAAAAAAAAAAAAAAAAAAAAAAAAAAAAAAAAAAAAAAAAAAAAAAAAAAAAAAAAAAAAAAAAAAAAAAAAAAAAAAAAAAAAAAAAAAAAAAAAAAAAAAAAAAAAAAAAAAAAAAAAAAAAAAAAAAAAAAAAAAAAAAAAAAAAAAAAAAAAAAAAAAAAAAAAAAAAAAAAAAAAAAAAAAAAAAAAAAAAAAAAAAAAAAAAAAAAAAAAAAAAAAAAAAAAAAAAAAAAAAAAAAAAAAAAAAAAAAAAAAAAAAAAAAAAAAAAAAAAAAAAAAAAAAAAAAAAAAAAAAAAAAAAAAAAAAAAAAAAAAAAAAAAAAAAAAAAAAAAAAAAAAAAAAAAAAAAAAAAAAAAAAAAAAAAAAAAAAAAAAAAAAAAAAAAAAAAAAAAAAAAAAAAAAAAAAAAAAAAAAAAAAAAAAAAAAAAAAAAAAAAAAAAAAAAAAAAAAAAAAAAAAAAAAAAAAAAAAAAAAAAAAAAAAAAAAAAAAAAAAAAAAAAAAAAAAAAAAAAAAAAAAAAAAAAAAAAAAAAAAAAAAAAAAAAAAAAAAAAAAAAAAAAAAAAAAAAAAAAAAAAAAAAAAAAAAAAAAAAAAAAAAAAAAAAAAAAAAAAAAAAAAAAAAAAAAAAAAAAAAAAAAAAAAAAAAAAAAAAAAAAAAAAAAAAAAAAAAAAAAAAAAAAAAAAAAAAAAAAAAAAAAAAAAAAAAAAAAAAAAAAAAAAAAAAAAAAAAAAAAAAAAAAAAAAAAAAAAAAAAAAAAAAAAAAAAAAAAAAAAAAAAAAAAAAAAAAAAAAAAAAAAAAAAAAAAAAAAAAAAAAAAAAAAAAAAAAAAAAAAAAAAAAAAAAAAAAAAAAAAAAAAAAAAAAAAAAAAAAAAAAAAAAAAAAAAAAAAAAAAAAAAAAAAAAAAAAAAAAAAAAAAAAAAAAAAAAAAAAAAAAAAAAAAAAAAAAAAAAAAAAAAAAAAAAAAAAAAAAAAAAAAAAAAAAAAAAAAAAAAAAAAAAAAAAAAAAAAAAAAAAAAAAAAAAAAAAAAAAAAAAAAAAAAAAAAAAAAAAAAAAAAAAAAAAAAAAAAAAAAAAAAAAAAAAAAAAAAAAAAAAAAAAAAAAAAAAAAAAAAAAAAAAAAAAAAAAAAAAAAAAAAAAAAAAAAAAAAAAAAAAAAAAAAAAAAAAAAAAAAAAAAAAAAAAAAAAAAAAAAAAAAAAAAAAAAAAAAAAAAAAAAAAAAAAAAAAAAAAAAAAAAAAAAAAAAAAAAAAAAAAAAAAAAAAAAAAAAAAAAAAAAAAAAAAAAAAAAAAAAAAAAAAAAAAAAAAAAAAAAAAAAAAAAAAAAAAAAAAAAAAAAAAAAAAAAAAAAAAAAAAAAAAAAAAAAAAAAAAAAAAAAAAAAAAAAAAAAAAAAAAAAAAAAAAAAAAAAAAAAAAAAAAAAAAAAAAAAAAAAAAAAAAAAAAAAAAAAAAAAAAAAAAAAAAAAAAAAAAAAAAAAAAAAAAAAAAAAAAAAAAAAAAAAAAAAAAAAAAAAAAAAAAAAAAAAAAAAAAAAAAAAAAAAAAAAAAAAAAAAAAAAAAAAAAAAAAAAAAAAAAAAAAAAAAAAAAAAAAAAAAAAAAAAAAAAAAAAAAAAAAAAAAAAAAAAAAAAAAAAAAAAAAAAAAAAAAAAAAAAAAAAAAAAAAAAAAAAAAAAAAAAAAAAAAAAAAAAAAAAAAAAAAAAAAAAAAAAAAAAAAAAAAAAAAAAAAAAAAAAAAAAAAAAAAAAAAAAAAAAAAAAAAAAAAAAAAAAAAAAAAAAAAAAAAAAAAAAAAAAAAAAAAAAAAAAAAAAAAAAAAAAAAAAAAAAAAAAAAAAAAAAAAAAAAAAAAAAAAAAAAAAAAAAAAAAAAAAAAAAAAAAAAAAAAAAAAAAAAAAAAAAAAAAAAAAAAAAAAAAAAAAAAAAAAAAAAAAAAAAAAAAAAAAAAAAAAAAAAAAAAAAAAAAAAAAAAAAAAAAAAAAAAAAAAAAAAAAAAAAAAAAAAAAAAAAAAAAAAAAAAAAAAAAAAAAAAAAAAAAAAAAAAAAAAAAAAAAAAAAAAAAAAAAAAAAAAAAAAAAAAAAAAAAAAAAAAAAAAAAAAAAAAAAAAAAAAAAAAAAAAAAAAAAAAAAAAAAAAAAAAAAAAAAAAAAAAAAAAAAAAAAAAAAAAAAAAAAAAAAAAAAAAAAAAAAAAAAAAAAAAAAAAAAAAAAAAAAAAAAAAAAAAAAAAAAAAAAAAAAAAAAAAAAAAAAAAAAAAAAAAAAAAAAAAAAAAAAAAAAAAAAAAAAAAAAAAAAAAAAAAAAAAAAAAAAAAAAAAAAAAAAAAAAAAAAAAAAAAAAAAAAAAAAAAAAAAAAAAAAAAAAAAAAAAAAAAAAAAAAAAAAAAAAAAAAAAAAAAAAAAAAAAAAAAAAAAAAAAAAAAAAAAAAAAAAAAAAAAAAAAAAAAAAAAAAAAAAAAAAAAAAAAAAAAAAAAAAAAAAAAAAAAAAAAAAAAAAAAAAAAAAAAAAAAAAAAAAAAAAAAAAAAAAAAAAAAAAAAAAAAAAAAAAAAAAAAAAAAAAAAAAAAAAAAAAAAAAAAAAAAAAAAAAAAAAAAAAAAAAAAAAAAAAAAAAAAAAAAAAAAAAAAAAAAAAAAAAAAAAAAAAAAAAAAAAAAAAAAAAAAAAAAAAAAAAAAAAAAAAAAAAAAAAAAAAAAAAAAAAAAAAAAAAAAAAAAAAAAAAAAAAAAAAAAAAAAAAAAAAAAAAAAAAAAAAAAAAAAAAAAAAAAAAAAAAAAAAAAAAAAAAAAAAAAAAAAAAAAAAAAAAAAAAAAAAAAAAAAAAAAAAAAAAAAAAAAAAAAAAAAAAAAAAAAAAAAAAAAAAAAAAAAAAAAAAAAAAAAAAAAAAAAAAAAAAAAAAAAAAAAAAAAAAAAAAAAAAAAAAAAAAAAAAAAAAAAAAAAAAAAAAAAAAAAAAAAAAAAAAAAAAAAAAAAAAAAAAAAAAAAAAAAAAAAAAAAAAAAAAAAAAAAAAAAAAAAAAAAAAAAAAAAAAAAAAAAAAAAAAAAAAAAAAAAAAAAAAAAAAAAAAAAAAAAAAAAAAAAAAAAAAAAAAAAAAAAAAAAAAAAAAAAAAAAAAAAAAAAAAAAAAAAAAAAAAAAAAAAAAAAAAAAAAAAAAAAAAAAAAAAAAAAAAAAAAAAAAAAAAAAAAAAAAAAAAAAAAAAAAAAAAAAAAAAAAAAAAAAAAAAAAAAAAAAAAAAAAAAAAAAAAAAAAAAAAAAAAAAAAAAAAAAAAAAAAAAAAAAAAAAAAAAAAAAAAAAAAAAAAAAAAAAAAAAAAAAAAAAAAAAAAAAAAAAAAAAAAAAAAAAAAAAAAAAAAAAAAAAAAAAAAAAAAAAAAAAAAAAAAAAAAAAAAAAAAAAAAAAAAAAAAAAAAAAAAAAAAAAAAAAAAAAAAAAAAAAAAAAAAAAAAAAAAAAAAAAAAAAAAAAAAAAAAAAAAAAAAAAAAAAAAAAAAAAAAAAAAAAAAAAAAAAAAAAAAAAAAAAAAAAAAAAAAAAAAAAAAAAAAAAAAAAAAAAAAAAAAAAAAAAAAAAAAAAAAAAAAAAAAAAAAAAAAAAAAAAAAAAAAAAAAAAAAAAAAAAAAAAAAAAAAAAAAAAAAAAAAAAAAAAAAAAAAAAAAAAAAAAAAAAAAAAAAAAAAAAAAAAAAAAAAAAAAAAAAAAAAAAAAAAAAAAAAAAAAAAAAAAAAAAAAAAAAAAAAAAAAAAAAAAAAAAAAAAAAAAAAAAAAAAAAAAAAAAAAAAAAAAAAAAAAAAAAAAAAAAAAAAAAAAAAAAAAAAAAAAAAAAAAAAAAAAAAAAAAAAAAAAAAAAAAAAAAAAAAAAAAAAAAAAAAAAAAAAAAAAAAAAAAAAAAAAAAAAAAAAAAAAAAAAAAAAAAAAAAAAAAAAAAAAAAAAAAAAAAAAAAAAAAAAAAAAAAAAAAAAAAAAAAAAAAAAAAAAAAAAAAAAAAAAAAAAAAAAAAAAAAAAAAAAAAAAAAAAAAAAAAAAAAAAAAAAAAAAAAAAAAAAAAAAAAAAAAAAAAAAAAAAAAAAAAAAAAAAAAAAAAAAAAAAAAAAAAAAAAAAAAAAAAAAAAAAAAAAAAAAAAAAAAAAAAAAAAAAAAAAAAAAAAAAAAAAAAAAAAAAAAAAAAAAAAAAAAAAAAAAAAAAAAAAAAAAAAAAAAAAAAAAAAAAAAAAAAAAAAAAAAAAAAAAAAAAAAAAAAAAAAAAAAAAAAAAAAAAAAAAAAAAAAAAAAAAAAAAAAAAAAAAAAAAAAAAAAAAAAAAAAAAAAAAAAAAAAAAAAAAAAAAAAAAAAAAAAAAAAAAAAAAAAAAAAAAAAAAAAAAAAAAAAAAAAAAAAAAAAAAAAAAAAAAAAAAAAAAAAAAAAAAAAAAAAAAAAAAAAAAAAAAAAAAAAAAAAAAAAAAAAAAAAAAAAAAAAAAAAAAAAAAAAAAAAAAAAAAAAAAAAAAAAAAAAAAAAAAAAAAAAAAAAAAAAAAAAAAAAAAAAAAAAAAAAAAAAAAAAAAAAAAAAAAAAAAAAAAAAAAAAAAAAAAAAAAAAAAAAAAAAAAAAAAAAAAAAAAAAAAAAAAAAAAAAAAAAAAAAAAAAAAAAAAAAAAAAAAAAAAAAAAAAAAAAAAAAAAAAAAAAAAAAAAAAAAAAAAAAAAAAAAAAAAAAAAAAAAAAAAAAAAAAAAAAAAAAAAAAAAAAAAAAAAAAAAAAAAAAAAAAAAAAAAAAAAAAAAAAAAAAAAAAAAAAAAAAAAAAAAAAAAAAAAAAAAAAAAAAAAAAAAAAAAAAAAAAAAAAAAAAAAAAAAAAAAAAAAAAAAAAAAAAAAAAAAAAAAAAAAAAAAAAAAAAAAAAAAAAAAAAAAAAAAAAAAAAAAAAAAAAAAAAAAAAAAAAAAAAAAAAAAAAAAAAAAAAAAAAAAAAAAAAAAAAAAAAAAAAAAAAAAAAAAAAAAAAAAAAAAAAAAAAAAAAAAAAAAAAAAAAAAAAAAAAAAAAAAAAAAAAAAAAAAAAAAAAAAAAAAAAAAAAAAAAAAAAAAAAAAAAAAAAAAAAAAAAAAAAAAAAAAAAAAAAAAAAAAAAAAAAAAAAAAAAAAAAAAAAAAAAAAAAAAAAAAAAAAAAAAAAAAAAAAAAAAAAAAAAAAAAAAAAAAAAAAAAAAAAAAAAAAAAAAAAAAAAAAAAAAAAAAAAAAAAAAAAAAAAAAAAAAAAAAAAAAAAAAAAAAAAAAAAAAAAAAAAAAAAAAAAAAAAAAAAAAAAAAAAAAAAAAAAAAAAAAAAAAAAAAAAAAAAAAAAAAAAAAAAAAAAAAAAAAAAAAAAAAAAAAAAAAAAAAAAAAAAAAAAAAAAAAAAAAAAAAAAAAAAAAAAAAAAAAAAAAAAAAAAAAAAAAAAAAAAAAAAAAAAAAAAAAAAAAAAAAAAAAAAAAAAAAAAAAAAAAAAAAAAAAAAAAAAAAAAAAAAAAAAAAAAAAAAAAAAAAAAAAAAAAAAAAAAAAAAAAAAAAAAAAAAAAAAAAAAAAAAAAAAAAAAAAAAAAAAAAAAAAAAAAAAAAAAAAAAAAAAAAAAAAAAAAAAAAAAAAAAAAAAAAAAAAAAAAAAAAAAAAAAAAAAAAAAAAAAAAAAAAAAAAAAAAAAAAAAAAAAAAAAAAAAAAAAAAAAAAAAAAAAAAAAAAAAAAAAAAAAAAAAAAAAAAAAAAAAAAAAAAAAAAAAAAAAAAAAAAAAAAAAAAAAAAAAAAAAAAAAAAAAAAAAAAAAAAAAAAAAAAAAAAAAAAAAAAAAAAAAAAAAAAAAAAAAAAAAAAAAAAAAAAAAAAAAAAAAAAAAAAAAAAAAAAAAAAAAAAAAAAAAAAAAAAAAAAAAAAAAAAAAAAAAAAAAAAAAAAAAAAAAAAAAAAAAAAAAAAAAAAAAAAAAAAAAAAAAAAAAAAAAAAAAAAAAAAAAAAAAAAAAAAAAAAAAAAAAAAAAAAAAAAAAAAAAAAAAAAAAAAAAAAAAAAAAAAAAAAAAAAAAAAAAAAAAAAAAAAAAAAAAAAAAAAAAAAAAAAAAAAAAAAAAAAAAAAAAAAAAAAAAAAAAAAAAAAAAAAAAAAAAAAAAAAAAAAAAAAAAAAAAAAAAAAAAAAAAAAAAAAAAAAAAAAAAAAAAAAAAAAAAAAAAAAAAAAAAAAAAAAAAAAAAAAAAAAAAAAAAAAAAAAAAAAAAAAAAAAAAAAAAAAAAAAAAAAAAAAAAAAAAAAAAAAAAAAAAAAAAAAAAAAAAAAAAAAAAAAAAAAAAAAAAAAAAAAAAAAAAAAAAAAAAAAAAAAAAAAAAAAAAAAAAAAAAAAAAAAAAAAAAAAAAAAAAAAAAAAAAAAAAAAAAAAAAAAAAAAAAAAAAAAAAAAAAAAAAAAAAAAAAAAAAAAAAAAAAAAAAAAAAAAAAAAAAAAAAAAAAAAAAAAAAAAAAAAAAAAAAAAAAAAAAAAAAAAAAAAAAAAAAAAAAAAAAAAAAAAAAAAAAAAAAAAAAAAAAAAAAAAAAAAAAAAAAAAAAAAAAAAAAAAAAAAAAAAAAAAAAAAAAAAAAAAAAAAAAAAAAAAAAAAAAAAAAAAAAAAAAAA9lkBACsoJQGrCDe9Z/zzeXxJwMRwbjjyeCdLKE9JtfTwLe42QU4eeciZT34Hdxuvyi5ThufvjUFebcOjmD849nOhjYzYx1p/sisR/knt1MgmjvJqSx02yb1uxwUmAcm+RHxxZWXNha59MeRCZcx/FWBwqC+P0YRU1cLRtmJnFyViGxlV6HLmSnBR7jslHAFLvACy1azhKh2BHjCBZi3vipfobCCbQnU5gXt4E9r6wthMIBxfFsLex/1jUnLvrlNsNdSdwsiNmjEfM95DrcQeBW3uHj7a26Cc4CzQXFylEHpLenbN16l2adqBOrM6wloZT8vZqmBFehGlBGZjDusYTR0oLKA=</c2pa:manifest></metadata>
  <defs>
    <style>
      .cls-1 {
        clip-path: url(#clippath);
      }

      .cls-2 {
        fill: none;
      }

      .cls-2, .cls-3, .cls-4, .cls-5, .cls-6, .cls-7 {
        stroke-width: 0px;
      }

      .cls-8 {
        fill: #fff;
        filter: url(#drop-shadow-6);
        font-family: BasicallyAMono-SemiBold, 'Basically A Mono';
        font-size: 32px;
        font-weight: 600;
      }

      .cls-3 {
        fill: #ed202d;
        filter: url(#drop-shadow-5);
      }

      .cls-4 {
        fill: #fcbe8f;
        filter: url(#drop-shadow-4);
      }

      .cls-5 {
        fill: #007a74;
        filter: url(#drop-shadow-2);
      }

      .cls-6 {
        fill: #062024;
        filter: url(#drop-shadow-1);
      }

      .cls-7 {
        fill: #5b9589;
        filter: url(#drop-shadow-3);
      }
    </style>
    <clipPath id="clippath">
      <polygon class="cls-2" points="124.44 107.85 124.44 36 62.22 .08 0 36 0 107.85 62.22 143.77 124.44 107.85"/>
    </clipPath>
    <filter id="drop-shadow-1" filterUnits="userSpaceOnUse">
      <feOffset dx="4.72" dy="4.72"/>
      <feGaussianBlur result="blur" stdDeviation="1.57"/>
      <feFlood flood-color="#231f20" flood-opacity=".15"/>
      <feComposite in2="blur" operator="in"/>
      <feComposite in="SourceGraphic"/>
    </filter>
    <filter id="drop-shadow-2" filterUnits="userSpaceOnUse">
      <feOffset dx="4.72" dy="4.72"/>
      <feGaussianBlur result="blur-2" stdDeviation="1.57"/>
      <feFlood flood-color="#231f20" flood-opacity=".15"/>
      <feComposite in2="blur-2" operator="in"/>
      <feComposite in="SourceGraphic"/>
    </filter>
    <filter id="drop-shadow-3" filterUnits="userSpaceOnUse">
      <feOffset dx="4.72" dy="4.72"/>
      <feGaussianBlur result="blur-3" stdDeviation="1.57"/>
      <feFlood flood-color="#231f20" flood-opacity=".15"/>
      <feComposite in2="blur-3" operator="in"/>
      <feComposite in="SourceGraphic"/>
    </filter>
    <filter id="drop-shadow-4" filterUnits="userSpaceOnUse">
      <feOffset dx="4.72" dy="4.72"/>
      <feGaussianBlur result="blur-4" stdDeviation="1.57"/>
      <feFlood flood-color="#231f20" flood-opacity=".15"/>
      <feComposite in2="blur-4" operator="in"/>
      <feComposite in="SourceGraphic"/>
    </filter>
    <filter id="drop-shadow-5" filterUnits="userSpaceOnUse">
      <feOffset dx="4.72" dy="4.72"/>
      <feGaussianBlur result="blur-5" stdDeviation="1.57"/>
      <feFlood flood-color="#231f20" flood-opacity=".15"/>
      <feComposite in2="blur-5" operator="in"/>
      <feComposite in="SourceGraphic"/>
    </filter>
    <filter id="drop-shadow-6" filterUnits="userSpaceOnUse">
      <feOffset dx="2.83" dy="2.83"/>
      <feGaussianBlur result="blur-6" stdDeviation="2.83"/>
      <feFlood flood-color="#231f20" flood-opacity=".15"/>
      <feComposite in2="blur-6" operator="in"/>
      <feComposite in="SourceGraphic"/>
    </filter>
  </defs>
  <g class="cls-1">
    <g>
      <path class="cls-6" d="m84.33,151.45c4.62,3.38,6.69,7.9,7.43,9.78,2.68,6.77.19,9.69,3.1,13.54,2.61,3.45,8.25,5.94,12.32,3.82,6.16-3.19,3.94-14.4,10.17-17.91,4.37-2.47,6.88,2.4,15.84,2.39,1.53,0,15.28-.22,23.77-10.52,3.67-4.45,7.77-12.49,5.33-17.35-1.2-2.39-3.27-2.6-18.21-6.69-9.07-2.48-11.06-3.16-12.3-5.49-1.94-3.65.7-6.28-.06-13.5-.36-3.46-1.15-11.07-5.69-12.67-5.95-2.1-12.23,8.28-20.2,6.87-4.38-.78-6.89-4.7-9.86-9.36-4.38-6.86-2.94-10-5.77-11.53-7.28-3.93-29.31,10.06-30.62,22.12-.99,9.1,10.26,13.19,7.18,20.44-2.04,4.82-8.12,5.66-9.77,11.62-.08.29-1.27,4.81,1.07,7.68,2.72,3.34,7.13.69,16.21,2.66,2.77.6,6.43,1.44,10.05,4.09Z"/>
      <path class="cls-5" d="m76.53,159.57c6.49,4.75,9.4,11.1,10.44,13.74,3.76,9.51.26,13.61,4.35,19.03,3.66,4.85,11.59,8.34,17.32,5.37,8.65-4.49,5.54-20.24,14.29-25.17,6.15-3.47,9.66,3.37,22.26,3.36,2.15,0,21.47-.31,33.41-14.78,5.15-6.25,10.92-17.55,7.49-24.39-1.69-3.36-4.59-3.65-25.6-9.4-12.75-3.49-15.55-4.44-17.28-7.72-2.72-5.14.98-8.82-.08-18.98-.51-4.87-1.62-15.56-8-17.81-8.36-2.95-17.19,11.64-28.39,9.66-6.16-1.09-9.68-6.6-13.85-13.15-6.15-9.65-4.13-14.06-8.1-16.2-10.23-5.53-41.19,14.14-43.03,31.09-1.39,12.79,14.42,18.53,10.09,28.73-2.87,6.77-11.41,7.95-13.73,16.34-.11.41-1.78,6.76,1.5,10.79,3.82,4.69,10.03.96,22.78,3.74,3.9.85,9.04,2.02,14.12,5.74Zm-18.46-14.87c-2.33-2.87-1.15-7.39-1.07-7.68,1.65-5.96,7.72-6.81,9.77-11.62,3.08-7.26-8.17-11.34-7.18-20.44,1.31-12.06,23.34-26.05,30.62-22.12,2.83,1.53,1.39,4.67,5.77,11.53,2.97,4.66,5.47,8.58,9.86,9.36,7.96,1.41,14.25-8.98,20.2-6.87,4.54,1.6,5.33,9.21,5.69,12.67.75,7.23-1.88,9.85.06,13.5,1.23,2.33,3.23,3.01,12.3,5.49,14.94,4.09,17.01,4.29,18.21,6.69,2.44,4.87-1.66,12.91-5.33,17.35-8.49,10.3-22.25,10.52-23.77,10.52-8.97,0-11.47-4.86-15.84-2.39-6.22,3.51-4.01,14.72-10.17,17.91-4.07,2.11-9.72-.37-12.32-3.82-2.91-3.85-.42-6.77-3.1-13.54-.74-1.88-2.81-6.4-7.43-9.78-3.62-2.65-7.28-3.48-10.05-4.09-9.07-1.98-13.49.67-16.21-2.66Z"/>
      <path class="cls-7" d="m68.05,168.41c8.53,6.24,12.34,14.58,13.72,18.05,4.94,12.5.35,17.89,5.72,25,4.81,6.37,15.23,10.96,22.75,7.06,11.37-5.9,7.28-26.59,18.77-33.07,8.07-4.55,12.7,4.42,29.25,4.41,2.82,0,28.21-.41,43.9-19.42,6.77-8.21,14.34-23.05,9.84-32.04-2.21-4.42-6.03-4.8-33.63-12.35-16.74-4.58-20.43-5.84-22.7-10.14-3.57-6.75,1.29-11.59-.1-24.93-.67-6.4-2.13-20.44-10.51-23.4-10.98-3.88-22.59,15.29-37.29,12.69-8.1-1.43-12.72-8.68-18.2-17.27-8.08-12.68-5.42-18.47-10.65-21.29-13.44-7.26-54.12,18.58-56.53,40.84-1.82,16.81,18.95,24.35,13.26,37.75-3.78,8.89-14.99,10.45-18.04,21.46-.15.54-2.34,8.88,1.97,14.17,5.01,6.16,13.17,1.27,29.92,4.92,5.12,1.12,11.88,2.66,18.55,7.54Zm-28.42-18.32c-3.28-4.03-1.61-10.38-1.5-10.79,2.32-8.38,10.86-9.57,13.73-16.34,4.33-10.2-11.48-15.94-10.09-28.73,1.84-16.94,32.8-36.62,43.03-31.09,3.98,2.15,1.95,6.56,8.1,16.2,4.17,6.54,7.69,12.06,13.85,13.15,11.19,1.98,20.03-12.61,28.39-9.66,6.38,2.26,7.49,12.94,8,17.81,1.06,10.16-2.64,13.84.08,18.98,1.73,3.27,4.54,4.23,17.28,7.72,21,5.75,23.91,6.03,25.6,9.4,3.43,6.84-2.34,18.14-7.49,24.39-11.94,14.47-31.27,14.78-33.41,14.78-12.6,0-16.12-6.82-22.26-3.36-8.75,4.93-5.64,20.68-14.29,25.17-5.73,2.97-13.66-.52-17.32-5.37-4.09-5.42-.59-9.52-4.35-19.03-1.04-2.64-3.95-8.99-10.44-13.74-5.08-3.72-10.22-4.89-14.12-5.74-12.75-2.78-18.96.95-22.78-3.74Z"/>
      <path class="cls-4" d="m58.99,177.85c10.7,7.83,15.5,18.31,17.22,22.66,6.21,15.69.43,22.45,7.18,31.38,6.04,8,19.12,13.76,28.56,8.86,14.27-7.4,9.13-33.38,23.56-41.51,10.13-5.72,15.94,5.55,36.72,5.54,3.54,0,35.42-.51,55.1-24.38,8.5-10.31,18.01-28.94,12.35-40.22-2.78-5.55-7.57-6.02-42.21-15.5-21.02-5.75-25.64-7.33-28.5-12.73-4.49-8.47,1.62-14.54-.13-31.3-.84-8.03-2.67-25.65-13.2-29.37-13.78-4.87-28.36,19.2-46.81,15.93-10.16-1.8-15.96-10.89-22.84-21.68-10.15-15.91-6.81-23.18-13.36-26.72C55.76,9.7,4.7,42.15,1.66,70.09c-2.29,21.1,23.78,30.56,16.64,47.38-4.74,11.16-18.82,13.12-22.64,26.94-.19.67-2.93,11.14,2.48,17.79,6.29,7.74,16.54,1.59,37.56,6.17,6.42,1.4,14.91,3.34,23.29,9.47Zm-39.41-21.91c-4.31-5.3-2.12-13.64-1.97-14.17,3.05-11.01,14.26-12.57,18.04-21.46,5.69-13.4-15.08-20.94-13.26-37.75,2.42-22.26,43.09-48.11,56.53-40.84,5.22,2.82,2.56,8.61,10.65,21.29,5.48,8.6,10.1,15.84,18.2,17.27,14.7,2.6,26.31-16.57,37.29-12.69,8.38,2.96,9.85,17,10.51,23.4,1.39,13.35-3.47,18.19.1,24.93,2.28,4.3,5.96,5.55,22.7,10.14,27.59,7.55,31.41,7.93,33.63,12.35,4.5,8.98-3.07,23.83-9.84,32.04-15.68,19.01-41.08,19.42-43.9,19.42-16.55.01-21.18-8.97-29.25-4.41-11.49,6.48-7.4,27.17-18.77,33.07-7.52,3.9-17.94-.69-22.75-7.06-5.37-7.12-.78-12.5-5.72-25-1.37-3.47-5.19-11.82-13.72-18.05-6.67-4.88-13.43-6.43-18.55-7.54-16.75-3.65-24.91,1.25-29.92-4.92Z"/>
      <path class="cls-3" d="m1.07,187.65c11.09,6.29,8.62,9.32,18.47,15.5,22.43,14.07,39.88,1.24,50.54,12.87,9.87,10.77-1.59,24.68,8.79,38.42,7.16,9.48,22.89,14.23,34.97,10.85,14.9-4.18,17.87-19.21,40.08-27.92,2.34-.92,4.17-1.48,8.47-3.26,13.57-5.61,22.72-11.34,25.25-12.86,25.44-15.38,49.72-8.34,67.46-29.85,10.41-12.62,22.05-35.43,15.13-49.24-3.4-6.79-9.27-7.37-51.68-18.98-25.74-7.04-31.39-8.97-34.89-15.58-5.49-10.37,1.98-17.81-.16-38.32-1.27-12.22-5.09-28.49-16.16-35.96-8.59-5.81-13.03-1.11-35.21-4.79-7.2-1.19-22.64-3.87-37.84-12.2-19.21-10.52-17.21-18.66-28.6-22.77C38.67-16.2-7.3,17.05-21.19,56.33c-3.03,8.56-4.11,16.24-6.03,29.98-2.1,14.93-1.86,30.5-1.31,61.02.24,13.52.59,17.62,1.96,20.2.13.24.48.78,1.07,1.58,6.89,9.34,19.19,14.34,26.58,18.53Zm-2.93-25.44c-5.41-6.65-2.66-17.12-2.48-17.79,3.82-13.83,17.9-15.78,22.64-26.94C25.45,100.65-.63,91.19,1.66,70.09,4.7,42.15,55.76,9.7,72.63,18.82c6.56,3.54,3.22,10.81,13.36,26.72,6.88,10.79,12.68,19.89,22.84,21.68,18.46,3.26,33.03-20.8,46.81-15.93,10.52,3.72,12.36,21.34,13.2,29.37,1.75,16.75-4.36,22.83.13,31.3,2.86,5.4,7.48,6.97,28.5,12.73,34.64,9.48,39.43,9.95,42.21,15.5,5.65,11.28-3.85,29.91-12.35,40.22-19.69,23.87-51.56,24.37-55.1,24.38-20.78.01-26.58-11.26-36.72-5.54-14.43,8.14-9.29,34.11-23.56,41.51-9.44,4.9-22.52-.86-28.56-8.86-6.75-8.93-.97-15.7-7.18-31.38-1.72-4.36-6.52-14.83-17.22-22.66-8.38-6.13-16.86-8.07-23.29-9.47-21.03-4.58-31.27,1.56-37.56-6.17Z"/>
    </g>
  </g>
  <text class="cls-8" transform="translate(22.66 83.35)"><tspan x="0" y="0">CHMS</tspan></text>
</svg>